# xmcd
#
# Track frame offsets: 
#        150
#        14113
#        40761
#        61638
#        64623
#        75438
#        95727
#        120327
#        135201
#        147466
#        164048
#        181823
#        197562
#        222125
#        247386
#
# Disc length: 3469 seconds
#
# Revision: 9
# Processed by: cddbd v1.5PL3 Copyright (c) Steve Scherf et al.
# Submitted via: ExactAudioCopy v0.90b4
#
DISCID=d00d8b0f
DTITLE=Clint Black - D'lectrified
DYEAR=2002
DGENRE=Country
TTITLE0=Bob Away My Blues
TTITLE1=Are You Sure Waylon Done It This Way
TTITLE2=Hand In The Fire
TTITLE3=Outside Intro (To Galaxy Song)
TTITLE4=Galaxy Song
TTITLE5=When I Said I Do (With Lisa Hartman Black)
TTITLE6=Been There (With Steve Wariner)
TTITLE7=Dixie Lullaby (With Bruce Hornsby)
TTITLE8=Where Your Love Won't Go
TTITLE9=Love She Can't Live Without
TTITLE10=Burn One Down
TTITLE11=Who I Use To Be
TTITLE12=Harmony (With Kenny Loggins)
TTITLE13=No Time To Kill
TTITLE14=Mystery Track
EXTD=
EXTT0=
EXTT1=
EXTT2=
EXTT3=
EXTT4=
EXTT5=
EXTT6=
EXTT7=
EXTT8=
EXTT9=
EXTT10=
EXTT11=
EXTT12=
EXTT13=
EXTT14=
PLAYORDER=
